<?xml version="1.0" encoding="UTF-8"?><svg id="Layer_2" xmlns="http://www.w3.org/2000/svg" viewBox="0 0 984.83 1022.82"><path d="M147.43,445.14c6.63-16.87,13.65-34.88,21.08-54.06,7.43-19.17,14.91-38.25,22.44-57.22,7.53-18.97,14.86-37.35,21.99-55.12,7.12-17.77,13.5-33.78,19.12-48.04,3.41-1.6,7.12-2.81,11.14-3.61,4.01-.8,8.03-1.21,12.05-1.21l79.81,215.94c-1.81,1.01-4.32,1.85-7.53,2.56-3.21,.7-7.03,1.05-11.44,1.05h-2.86c-.9,0-1.86-.1-2.86-.3l-23.49-63.85h-96.38c-7.03,21.49-13.25,41.97-18.67,61.44-1.81,1-4.17,1.76-7.08,2.26-2.91,.5-5.87,.75-8.88,.75-1.81,0-3.42-.05-4.82-.15-1.41-.1-2.61-.25-3.61-.45Zm90.96-196.97c-7.03,18.27-14.21,37.5-21.53,57.68-7.33,20.18-14.51,40.51-21.53,60.99h86.44l-43.37-118.66Z"/><path d="M373.91,215.65c3.41-1.81,7.18-3.11,11.29-3.91,4.11-.8,8.28-1.21,12.5-1.21v230.1c-2.81,1.61-6.47,2.76-10.99,3.46-4.52,.7-8.79,1.05-12.8,1.05V215.65Z"/><path d="M455.22,215.65c3.41-1.81,7.18-3.11,11.29-3.91,4.11-.8,8.28-1.21,12.5-1.21v230.1c-2.81,1.61-6.47,2.76-10.99,3.46-4.52,.7-8.79,1.05-12.8,1.05V215.65Z"/><path d="M544.97,285.82c2.81,10.24,6.17,21.23,10.09,32.98,3.92,11.75,8.23,23.64,12.95,35.69,4.72,12.05,9.64,24,14.76,35.84,5.12,11.85,10.29,22.89,15.51,33.13,12.45-24.7,22.39-48.24,29.82-70.63,7.43-22.39,13.45-43.62,18.07-63.7,2.61-1.21,5.47-2.06,8.58-2.56,3.11-.5,6.07-.75,8.88-.75h3.16c1.1,0,2.16,.1,3.16,.3-5.62,18.07-13.36,39-23.19,62.8-9.84,23.79-21.08,48.44-33.73,73.94-5.42,11.04-10.39,20.98-14.91,29.82-4.52,8.83-8.79,16.96-12.8,24.4-4.02,7.43-7.93,14.35-11.75,20.78-3.82,6.42-7.63,12.85-11.44,19.28-2.01,1-4.87,1.85-8.58,2.56-3.72,.7-7.58,1.05-11.6,1.05s-7.03-.3-9.64-.9v-1.21c8.43-9.84,17.17-20.58,26.2-32.23,9.04-11.65,18.07-25,27.11-40.06-6.02-10.64-12.25-22.59-18.67-35.84-6.43-13.25-12.5-26.7-18.22-40.36-5.72-13.65-11.05-27.15-15.96-40.51-4.92-13.35-8.88-25.55-11.9-36.59,3.21-2.21,7.08-3.96,11.6-5.27,4.52-1.3,8.68-1.96,12.5-1.96Z"/><path d="M735.01,240.64c0,5.62-1.05,10.95-3.16,15.96-2.11,5.02-4.77,9.59-7.98,13.7-3.21,4.12-6.73,7.63-10.54,10.54-3.82,2.91-7.43,5.17-10.84,6.78-1.41,0-2.86-.55-4.37-1.66-1.51-1.1-2.46-2.26-2.86-3.46,5.02-3.41,9.64-7.58,13.85-12.5,4.22-4.92,6.32-11.49,6.32-19.73,0-6.22-1.61-11.29-4.82-15.21-3.21-3.91-7.53-7.18-12.95-9.79,1.4-3.81,3.71-7.23,6.93-10.24,3.21-3.01,6.73-4.92,10.54-5.72,5.22,2.01,9.84,5.62,13.85,10.84,4.01,5.22,6.02,12.05,6.02,20.48Z"/><path d="M744.65,411.11c1.6-2.81,4.26-5.42,7.98-7.83,3.71-2.41,7.68-3.81,11.9-4.22,1.4,10.24,6.37,18.73,14.91,25.45,8.53,6.73,19.43,10.09,32.68,10.09s22.03-2.76,28.16-8.28c6.12-5.52,9.19-12.4,9.19-20.63s-2.86-14.65-8.58-19.28c-5.72-4.62-15.51-8.63-29.37-12.05l-17.77-4.52c-6.43-1.6-12.2-3.41-17.32-5.42-5.12-2-9.54-4.47-13.25-7.38-3.72-2.91-6.58-6.37-8.58-10.39-2.01-4.01-3.01-8.93-3.01-14.76,0-6.22,1.61-12.3,4.82-18.22,3.21-5.92,7.68-11.19,13.4-15.81,5.72-4.62,12.35-8.28,19.88-10.99,7.53-2.71,15.71-4.07,24.55-4.07s16.66,1.05,22.89,3.16c6.22,2.11,11.39,4.72,15.51,7.83,4.11,3.12,7.12,6.48,9.04,10.09,1.91,3.61,2.96,6.83,3.16,9.64-1.41,2.81-3.82,5.27-7.23,7.38-3.42,2.11-7.13,3.36-11.14,3.76-1.41-7.63-5.32-14.26-11.75-19.88-6.43-5.62-16.07-8.43-28.91-8.43-4.22,0-8.39,.56-12.5,1.66-4.12,1.11-7.78,2.76-10.99,4.97-3.21,2.21-5.83,4.87-7.83,7.98-2.01,3.12-3.01,6.78-3.01,10.99,0,6.83,2.41,12.3,7.23,16.41,4.82,4.12,13.25,7.58,25.3,10.39l18.37,4.52c17.47,4.42,29.96,9.99,37.49,16.72,7.53,6.73,11.29,15.31,11.29,25.75,0,6.63-1.5,13.1-4.52,19.43-3.01,6.32-7.43,11.95-13.25,16.87-5.83,4.92-12.95,8.84-21.38,11.75-8.43,2.91-18.07,4.37-28.91,4.37-9.44,0-17.67-1.16-24.7-3.46-7.03-2.31-13-5.27-17.92-8.88-4.92-3.62-8.69-7.58-11.29-11.9-2.61-4.32-4.12-8.58-4.52-12.8Z"/><path d="M175.89,577.06c-.4,4.02-1.46,7.83-3.16,11.44-1.71,3.61-3.57,6.23-5.57,7.83-9.04-.8-19.68-1.85-31.93-3.16-12.25-1.3-24-2.46-35.24-3.46v201.19c-3.21,1.81-6.98,3.06-11.29,3.77-4.32,.7-8.79,1.05-13.4,1.05v-206.01c-6.02,.6-12.55,1.26-19.58,1.96-7.03,.71-13.96,1.35-20.78,1.96-6.83,.6-13.3,1.16-19.43,1.66-6.13,.5-11.29,.86-15.51,1.05,.4-4.41,1.35-8.28,2.86-11.59s3.36-5.87,5.57-7.68H175.89Z"/><path d="M320.15,699.64c0-17.06-3.52-29.56-10.54-37.5-7.03-7.93-16.97-11.9-29.82-11.9-4.62,0-9.24,.86-13.85,2.56-4.62,1.71-8.99,4.02-13.1,6.93-4.12,2.91-7.98,6.23-11.59,9.94-3.61,3.72-6.83,7.68-9.64,11.9v109.63c-2.81,1.61-6.48,2.76-10.99,3.46-4.52,.7-8.79,1.05-12.8,1.05v-229.5c3.41-1.81,7.18-3.11,11.29-3.91,4.11-.8,8.28-1.21,12.5-1.21v103c2.81-3.41,6.22-6.93,10.24-10.54,4.01-3.61,8.53-6.93,13.55-9.94,5.02-3.01,10.49-5.47,16.41-7.38,5.92-1.9,12.3-2.86,19.12-2.86,16.26,0,29.16,4.92,38.7,14.76,9.53,9.84,14.31,23.9,14.31,42.17v100.89c-2.81,1.61-6.47,2.76-10.99,3.46-4.52,.7-8.79,1.05-12.8,1.05v-96.08Z"/><path d="M399.06,641.51c6.63-3.41,14.16-5.12,22.59-5.12v43.37c2-6.02,4.72-11.79,8.13-17.32,3.41-5.52,7.48-10.39,12.2-14.61,4.72-4.22,9.99-7.58,15.81-10.09,5.82-2.51,12.24-3.76,19.28-3.76,5.42,0,10.14,.86,14.15,2.56,4.01,1.71,7.33,3.82,9.94,6.32,2.61,2.51,4.57,5.37,5.87,8.58,1.3,3.21,2.06,6.32,2.26,9.34-1.61,2.81-4.37,5.22-8.28,7.23-3.92,2.01-7.78,3.21-11.6,3.61-1.01-5.42-3.21-10.24-6.63-14.46-3.42-4.22-9.14-6.32-17.17-6.32-5.83,0-11.2,1.71-16.11,5.12-4.92,3.42-9.29,8.18-13.1,14.31-3.82,6.13-6.88,13.4-9.19,21.84-2.31,8.43-3.76,17.67-4.37,27.71v71.38c-2.81,1.61-6.47,2.76-10.99,3.46-4.52,.7-8.79,1.05-12.8,1.05v-154.2Z"/><path d="M574.94,589.1c-1.81,3.21-4.62,6.58-8.43,10.09-3.82,3.51-7.23,5.98-10.24,7.38-3.01-1.4-6.43-3.86-10.24-7.38-3.82-3.51-6.73-6.87-8.73-10.09,2-3.41,4.92-6.93,8.73-10.54,3.81-3.62,7.23-6.22,10.24-7.83,3.01,1.61,6.48,4.22,10.39,7.83,3.91,3.61,6.67,7.13,8.28,10.54Zm-31.32,52.4c3.41-1.81,7.18-3.11,11.29-3.91,4.11-.8,8.28-1.21,12.5-1.21v154.8c-2.81,1.61-6.47,2.76-10.99,3.46-4.52,.7-8.79,1.05-12.8,1.05v-154.2Z"/><path d="M602.94,648.74c1.81-2.21,4.47-4.26,7.98-6.17,3.51-1.9,7.28-2.86,11.29-2.86h7.83v-8.43c0-9.23,1.6-18.17,4.82-26.81,3.21-8.63,7.78-16.26,13.7-22.89,5.92-6.63,12.95-11.9,21.08-15.81,8.13-3.91,17.21-5.87,27.25-5.87,6.82,0,12.6,.9,17.32,2.71,4.72,1.81,8.58,4.07,11.6,6.78,3.01,2.71,5.27,5.53,6.78,8.43,1.51,2.91,2.36,5.57,2.56,7.98-1,2.21-3.31,4.52-6.93,6.93-3.61,2.41-7.43,3.82-11.45,4.22-.4-2-1.11-4.37-2.11-7.08-1.01-2.71-2.61-5.32-4.82-7.83-2.21-2.51-5.17-4.67-8.89-6.47-3.72-1.81-8.28-2.71-13.7-2.71-4.42,0-8.64,.71-12.65,2.11-4.02,1.41-7.58,3.72-10.69,6.93-3.12,3.21-5.57,7.28-7.38,12.2-1.81,4.92-2.71,10.8-2.71,17.62v28.01h54.81c-.2,3.42-1.35,6.28-3.46,8.58-2.11,2.31-4.37,3.46-6.78,3.46h-44.57v139.45c-2.82,1.61-6.48,2.76-10.99,3.46-4.52,.7-8.79,1.05-12.8,1.05v-143.96h-27.11v-3.01Z"/><path d="M721.3,648.74c1.61-2.21,4.17-4.26,7.68-6.17,3.51-1.9,7.38-2.86,11.6-2.86h9.64v-43.37c3.21-2.61,6.97-4.56,11.29-5.87,4.32-1.3,8.48-1.96,12.5-1.96v51.2h59.03c-.2,3.42-1.16,6.28-2.86,8.58-1.71,2.31-3.87,3.46-6.47,3.46h-49.69v98.79c0,6.43,.75,11.6,2.26,15.51,1.51,3.91,3.56,6.98,6.17,9.19,2.61,2.21,5.62,3.72,9.04,4.52,3.41,.8,6.93,1.2,10.54,1.2,6.63,0,12.15-1.3,16.56-3.92,4.41-2.61,8.03-5.32,10.84-8.13,2.81,.81,4.62,2.51,5.42,5.12-1,1.61-2.61,3.72-4.82,6.33-2.21,2.61-5.12,5.17-8.73,7.68-3.61,2.51-7.94,4.67-12.95,6.48-5.02,1.81-10.64,2.71-16.87,2.71-5.62,0-10.94-.71-15.96-2.11-5.02-1.41-9.39-3.71-13.1-6.93-3.72-3.21-6.68-7.53-8.88-12.95-2.21-5.42-3.31-12.15-3.31-20.18v-103.3h-28.91v-3.01Z"/><path d="M858.33,761.68c1.6-2.81,4.26-5.42,7.98-7.83,3.71-2.41,7.68-3.81,11.9-4.22,1.4,10.24,6.37,18.73,14.91,25.45,8.53,6.73,19.43,10.09,32.68,10.09s22.03-2.76,28.16-8.28c6.12-5.52,9.19-12.4,9.19-20.63s-2.86-14.65-8.58-19.28c-5.72-4.62-15.51-8.63-29.37-12.05l-17.77-4.52c-6.43-1.6-12.2-3.41-17.32-5.42-5.12-2-9.54-4.47-13.25-7.38-3.72-2.91-6.58-6.37-8.58-10.39-2.01-4.01-3.01-8.93-3.01-14.76,0-6.22,1.61-12.3,4.82-18.22,3.21-5.92,7.68-11.19,13.4-15.81,5.72-4.62,12.35-8.28,19.88-10.99,7.53-2.71,15.71-4.07,24.55-4.07s16.66,1.05,22.89,3.16c6.22,2.11,11.39,4.72,15.51,7.83,4.11,3.12,7.12,6.48,9.04,10.09,1.91,3.61,2.96,6.83,3.16,9.64-1.41,2.82-3.82,5.27-7.23,7.38-3.42,2.11-7.13,3.36-11.14,3.76-1.41-7.63-5.32-14.25-11.75-19.88-6.43-5.62-16.07-8.43-28.91-8.43-4.22,0-8.39,.56-12.5,1.66-4.12,1.11-7.78,2.76-10.99,4.97-3.21,2.21-5.83,4.87-7.83,7.98-2.01,3.12-3.01,6.78-3.01,10.99,0,6.83,2.41,12.3,7.23,16.41,4.82,4.12,13.25,7.58,25.3,10.39l18.37,4.52c17.47,4.42,29.96,9.99,37.49,16.72,7.53,6.73,11.29,15.31,11.29,25.75,0,6.63-1.5,13.1-4.52,19.43-3.01,6.32-7.43,11.95-13.25,16.87-5.83,4.92-12.95,8.84-21.38,11.75-8.43,2.91-18.07,4.37-28.91,4.37-9.44,0-17.67-1.16-24.7-3.46-7.03-2.31-13-5.27-17.92-8.88-4.92-3.62-8.69-7.58-11.29-11.9-2.61-4.31-4.12-8.58-4.52-12.8Z"/></svg>